<svg id="visual" viewBox="0 0 1000 400" width="1000" height="400" xmlns="http://www.w3.org/2000/svg" xmlns:xlink="http://www.w3.org/1999/xlink" version="1.1"><path d="M0 179L18.5 178.7C37 178.3 74 177.7 111 189.3C148 201 185 225 222 235.2C259 245.3 296 241.7 333 227.3C370 213 407 188 444.2 173C481.3 158 518.7 153 555.8 155.8C593 158.7 630 169.3 667 177.3C704 185.3 741 190.7 778 193.2C815 195.7 852 195.3 889 193.3C926 191.3 963 187.7 981.5 185.8L1000 184L1000 401L981.5 401C963 401 926 401 889 401C852 401 815 401 778 401C741 401 704 401 667 401C630 401 593 401 555.8 401C518.7 401 481.3 401 444.2 401C407 401 370 401 333 401C296 401 259 401 222 401C185 401 148 401 111 401C74 401 37 401 18.5 401L0 401Z" fill="#0066FF" stroke-linecap="round" stroke-linejoin="miter"></path></svg>