<svg id="visual" viewBox="0 0 1200 400" width="1200" height="400" xmlns="http://www.w3.org/2000/svg" xmlns:xlink="http://www.w3.org/1999/xlink" version="1.1"><rect x="0" y="0" width="1200" height="400" fill="#21292d"></rect><path d="M0 262L16.7 270.5C33.3 279 66.7 296 100 308.5C133.3 321 166.7 329 200 315.7C233.3 302.3 266.7 267.7 300 267.2C333.3 266.7 366.7 300.3 400 316.8C433.3 333.3 466.7 332.7 500 315.3C533.3 298 566.7 264 600 261.3C633.3 258.7 666.7 287.3 700 288.3C733.3 289.3 766.7 262.7 800 256.5C833.3 250.3 866.7 264.7 900 270C933.3 275.3 966.7 271.7 1000 273.8C1033.3 276 1066.7 284 1100 278.3C1133.3 272.7 1166.7 253.3 1183.3 243.7L1200 234L1200 401L1183.3 401C1166.7 401 1133.3 401 1100 401C1066.7 401 1033.3 401 1000 401C966.7 401 933.3 401 900 401C866.7 401 833.3 401 800 401C766.7 401 733.3 401 700 401C666.7 401 633.3 401 600 401C566.7 401 533.3 401 500 401C466.7 401 433.3 401 400 401C366.7 401 333.3 401 300 401C266.7 401 233.3 401 200 401C166.7 401 133.3 401 100 401C66.7 401 33.3 401 16.7 401L0 401Z" fill="#cc6666"></path></svg>